<?xml version="1.0" standalone="no"?>
<!DOCTYPE svg PUBLIC "-//W3C//DTD SVG 20010904//EN"
 "http://www.w3.org/TR/2001/REC-SVG-20010904/DTD/svg10.dtd">
<svg version="1.0" xmlns="http://www.w3.org/2000/svg"
 width="152.000000pt" height="152.000000pt" viewBox="0 0 152.000000 152.000000"
 preserveAspectRatio="xMidYMid meet">
<metadata>
Created by potrace 1.11, written by Peter Selinger 2001-2013
</metadata>
<g transform="translate(0.000000,152.000000) scale(0.100000,-0.100000)"
fill="#000000" stroke="none">
<path d="M728 1515 c-2 -2 -28 -5 -58 -9 -104 -12 -158 -29 -262 -84 -411
-215 -528 -752 -244 -1120 190 -248 534 -357 821 -260 156 53 285 145 382 273
64 84 120 220 138 334 61 382 -209 770 -588 846 -65 13 -183 25 -189 20z m162
-130 c19 -5 37 -9 40 -10 49 -10 149 -59 210 -104 30 -22 80 -68 80 -74 0 -1
-16 -2 -36 -3 -30 -1 -40 4 -53 27 -18 33 -36 42 -62 34 -21 -7 -27 -59 -9
-70 17 -10 11 -19 -26 -43 l-35 -23 -20 25 c-22 28 -48 33 -67 14 -17 -17 -15
-36 8 -66 l21 -26 -26 -25 -25 -26 -16 23 c-19 27 -50 29 -64 3 -14 -27 -13
-35 10 -61 24 -27 24 -38 5 -64 -14 -19 -16 -19 -34 -2 -11 10 -30 16 -43 14
-36 -5 -35 -42 2 -84 20 -23 29 -42 25 -53 -4 -9 -9 -28 -12 -43 -5 -26 -6
-26 -28 -12 -18 12 -28 13 -44 4 -35 -18 -26 -53 19 -79 36 -20 40 -26 40 -62
0 -41 -2 -43 -35 -30 -28 12 -55 -5 -55 -35 0 -19 8 -28 35 -40 40 -16 50 -33
41 -68 -6 -23 -9 -24 -36 -14 -37 12 -61 -3 -55 -34 4 -20 10 -27 44 -47 12
-7 10 -14 -9 -40 -22 -32 -22 -32 -44 -13 -31 28 -53 33 -71 16 -20 -20 -19
-26 5 -57 l20 -25 -31 -13 c-50 -20 -82 -15 -143 26 -125 83 -213 197 -262
340 -22 66 -27 98 -27 180 0 116 6 156 38 242 29 75 78 153 136 213 49 51 112
100 128 100 6 0 11 4 11 8 0 5 28 20 63 35 83 34 95 37 142 44 22 3 41 6 43 8
6 5 171 -3 202 -10z m391 -268 c21 -13 86 -140 91 -178 2 -13 6 -28 9 -34 14
-25 17 -201 5 -265 -23 -119 -94 -250 -184 -337 -44 -43 -136 -106 -188 -128
-52 -23 -135 -45 -145 -39 -4 2 -10 1 -13 -4 -11 -18 -256 -2 -256 17 0 12 48
11 87 -3 73 -26 118 25 53 62 -35 20 -35 20 -10 51 18 20 26 23 70 18 37 -4
54 -2 65 9 8 9 15 19 15 23 0 19 -28 40 -60 44 -36 4 -38 8 -26 62 3 11 5 23
5 28 1 4 15 7 32 7 36 0 69 16 69 33 -1 32 -20 43 -81 46 -12 1 -15 9 -13 32
5 43 13 52 41 46 16 -3 32 2 44 14 16 16 17 22 7 39 -7 11 -20 20 -28 21 -21
1 -51 7 -55 11 -1 2 0 18 2 36 5 33 6 33 48 26 38 -5 45 -3 55 16 9 18 8 25
-6 41 -9 10 -23 19 -29 19 -7 0 -18 7 -25 15 -9 11 -9 15 -1 15 7 0 9 5 6 10
-11 18 23 22 47 6 31 -22 65 -20 78 4 9 17 6 25 -14 45 -14 14 -30 25 -36 25
-16 0 -12 19 9 42 l20 20 30 -22 c35 -24 69 -23 85 3 9 15 5 23 -21 46 l-32
28 26 21 c27 22 29 22 78 -13 17 -12 36 -21 43 -19 6 1 16 2 21 3 16 2 20 41
5 55 -8 8 -14 18 -14 21 0 10 69 -4 91 -18z"/>
</g>
</svg>
